<svg width="21" height="21" viewBox="0 0 21 21" fill="none" xmlns="http://www.w3.org/2000/svg">
<path d="M1.63266 13.7771L6.32434 11.7671C6.56937 11.6616 6.83693 11.6191 7.10258 11.6436C7.36823 11.6681 7.62352 11.7588 7.84513 11.9073L10.3538 13.5792C11.8868 12.8337 13.1276 11.5984 13.88 10.0687L12.2143 7.52259C12.0691 7.30147 11.9811 7.04782 11.958 6.78433C11.9348 6.52084 11.9774 6.25573 12.0818 6.01272L14.095 1.31635C14.232 0.997422 14.4686 0.73149 14.7695 0.558435C15.0704 0.38538 15.4193 0.314529 15.7638 0.356511C17.1178 0.529019 18.3624 1.18926 19.2645 2.21355C20.1666 3.23784 20.6642 4.55589 20.6643 5.92078C20.6598 9.7449 19.1386 13.4111 16.4346 16.1151C13.7305 18.8192 10.0643 20.3403 6.2402 20.3449C4.87531 20.3448 3.55726 19.8471 2.53297 18.945C1.50868 18.0429 0.848437 16.7983 0.67593 15.4444C0.634324 15.1005 0.705 14.7523 0.877413 14.4519C1.04983 14.1514 1.31475 13.9147 1.63266 13.7771Z" fill="black"/>
</svg>
